REM DIRINDEX 1\2\5,1\2\6,1\2\7,1\2\8,1\3\9,1\3\10,1\3\11,1\4\12,1\4\13,1\4\14,1\4\15,1\4\16
REM DIRNAME folder01,folder02,folder03,folder04,folder05,folder06,folder07,folder08,folder09,folder10,folder11,folder12,folder13,folder14,folder15,folder16
TITLE ""
FILE "1200_sec03_1019_1027.mp3" MP3
  TRACK 01 AUDIO
    TITLE "0:"
    INDEX 01 00:00:00
  TRACK 02 AUDIO
    TITLE "12:cjc034_07760"
    INDEX 01 00:00:21
  TRACK 03 AUDIO
    TITLE "0:"
    INDEX 01 00:01:46
  TRACK 04 AUDIO
    TITLE "13:cjc034_07761"
    INDEX 01 00:02:06
  TRACK 05 AUDIO
    TITLE "0:"
    INDEX 01 00:04:19
  TRACK 06 AUDIO
    TITLE "14:cjc034_07762"
    INDEX 01 00:04:58
  TRACK 07 AUDIO
    TITLE "0:"
    INDEX 01 00:06:10
  TRACK 08 AUDIO
    TITLE "15:cjc034_07763"
    INDEX 01 00:06:43
  TRACK 09 AUDIO
    TITLE "0:"
    INDEX 01 00:09:69
  TRACK 10 AUDIO
    TITLE "12:cjc034_07764"
    INDEX 01 00:11:31
  TRACK 11 AUDIO
    TITLE "0:"
    INDEX 01 00:12:58
  TRACK 12 AUDIO
    TITLE "13:cjc034_07765"
    INDEX 01 00:13:18
  TRACK 13 AUDIO
    TITLE "0:"
    INDEX 01 00:14:37
  TRACK 14 AUDIO
    TITLE "14:cjc034_07766"
    INDEX 01 00:14:70
  TRACK 15 AUDIO
    TITLE "0:"
    INDEX 01 00:16:22
  TRACK 16 AUDIO
    TITLE "15:cjc034_07767"
    INDEX 01 00:16:61
  TRACK 17 AUDIO
    TITLE "0:"
    INDEX 01 00:20:53
  TRACK 18 AUDIO
    TITLE "12:cjc034_07768"
    INDEX 01 00:22:13
  TRACK 19 AUDIO
    TITLE "0:"
    INDEX 01 00:23:63
  TRACK 20 AUDIO
    TITLE "13:cjc034_07769"
    INDEX 01 00:24:20
  TRACK 21 AUDIO
    TITLE "0:"
    INDEX 01 00:25:39
  TRACK 22 AUDIO
    TITLE "14:cjc034_07770"
    INDEX 01 00:25:74
  TRACK 23 AUDIO
    TITLE "0:"
    INDEX 01 00:27:49
  TRACK 24 AUDIO
    TITLE "15:cjc034_07771"
    INDEX 01 00:28:08
  TRACK 25 AUDIO
    TITLE "0:"
    INDEX 01 00:32:70
  TRACK 26 AUDIO
    TITLE "12:cjc034_07772"
    INDEX 01 00:34:28
  TRACK 27 AUDIO
    TITLE "0:"
    INDEX 01 00:35:66
  TRACK 28 AUDIO
    TITLE "13:cjc034_07773"
    INDEX 01 00:36:23
  TRACK 29 AUDIO
    TITLE "0:"
    INDEX 01 00:37:63
  TRACK 30 AUDIO
    TITLE "14:cjc034_07774"
    INDEX 01 00:38:22
  TRACK 31 AUDIO
    TITLE "0:"
    INDEX 01 00:39:58
  TRACK 32 AUDIO
    TITLE "15:cjc034_07775"
    INDEX 01 00:40:17
  TRACK 33 AUDIO
    TITLE "0:"
    INDEX 01 00:44:60
  TRACK 34 AUDIO
    TITLE "12:cjc034_07776"
    INDEX 01 00:46:21
  TRACK 35 AUDIO
    TITLE "0:"
    INDEX 01 00:47:40
  TRACK 36 AUDIO
    TITLE "13:cjc034_07777"
    INDEX 01 00:47:74
  TRACK 37 AUDIO
    TITLE "0:"
    INDEX 01 00:49:04
  TRACK 38 AUDIO
    TITLE "14:cjc034_07778"
    INDEX 01 00:49:43
  TRACK 39 AUDIO
    TITLE "0:"
    INDEX 01 00:50:62
  TRACK 40 AUDIO
    TITLE "15:cjc034_07779"
    INDEX 01 00:51:24
  TRACK 41 AUDIO
    TITLE "0:"
    INDEX 01 00:55:48
  TRACK 42 AUDIO
    TITLE "12:cjc034_07780"
    INDEX 01 00:57:07
  TRACK 43 AUDIO
    TITLE "0:"
    INDEX 01 00:58:30
  TRACK 44 AUDIO
    TITLE "13:cjc034_07781"
    INDEX 01 00:58:66
  TRACK 45 AUDIO
    TITLE "0:"
    INDEX 01 00:59:67
  TRACK 46 AUDIO
    TITLE "14:cjc034_07782"
    INDEX 01 01:00:25
  TRACK 47 AUDIO
    TITLE "0:"
    INDEX 01 01:01:48
  TRACK 48 AUDIO
    TITLE "15:cjc034_07783"
    INDEX 01 01:02:06
  TRACK 49 AUDIO
    TITLE "0:"
    INDEX 01 01:06:28
  TRACK 50 AUDIO
    TITLE "16:cjc034_07784"
    INDEX 01 01:07:59
  TRACK 51 AUDIO
    TITLE "0:"
    INDEX 01 01:12:48
  TRACK 52 AUDIO
    TITLE "12:cjc034_07785"
    INDEX 01 01:13:51
  TRACK 53 AUDIO
    TITLE "0:"
    INDEX 01 01:14:61
  TRACK 54 AUDIO
    TITLE "13:cjc034_07786"
    INDEX 01 01:15:21
  TRACK 55 AUDIO
    TITLE "0:"
    INDEX 01 01:20:02
  TRACK 56 AUDIO
    TITLE "14:cjc034_07787"
    INDEX 01 01:20:36
  TRACK 57 AUDIO
    TITLE "0:"
    INDEX 01 01:21:43
  TRACK 58 AUDIO
    TITLE "15:cjc034_07788"
    INDEX 01 01:22:03
  TRACK 59 AUDIO
    TITLE "0:"
    INDEX 01 01:26:21
  TRACK 60 AUDIO
    TITLE "12:cjc034_07789"
    INDEX 01 01:27:55
  TRACK 61 AUDIO
    TITLE "0:"
    INDEX 01 01:29:15
  TRACK 62 AUDIO
    TITLE "13:cjc034_07790"
    INDEX 01 01:29:50
  TRACK 63 AUDIO
    TITLE "0:"
    INDEX 01 01:30:73
  TRACK 64 AUDIO
    TITLE "14:cjc034_07791"
    INDEX 01 01:31:30
  TRACK 65 AUDIO
    TITLE "0:"
    INDEX 01 01:32:66
  TRACK 66 AUDIO
    TITLE "15:cjc034_07792"
    INDEX 01 01:33:25
  TRACK 67 AUDIO
    TITLE "0:"
    INDEX 01 01:38:73
  TRACK 68 AUDIO
    TITLE "12:cjc034_07793"
    INDEX 01 01:40:33
  TRACK 69 AUDIO
    TITLE "0:"
    INDEX 01 01:41:57
  TRACK 70 AUDIO
    TITLE "13:cjc034_07794"
    INDEX 01 01:42:18
  TRACK 71 AUDIO
    TITLE "0:"
    INDEX 01 01:43:25
  TRACK 72 AUDIO
    TITLE "14:cjc034_07795"
    INDEX 01 01:43:58
  TRACK 73 AUDIO
    TITLE "0:"
    INDEX 01 01:45:10
  TRACK 74 AUDIO
    TITLE "15:cjc034_07796"
    INDEX 01 01:45:42
  TRACK 75 AUDIO
    TITLE "0:"
    INDEX 01 01:50:25
